mtllib model_1.mtl
o model_1
v 3.224013328552246 -2.8665900230407715 -0.20858199894428253
v 6.702134132385254 -2.8665900230407715 -0.20858199894428253
v 2.7497241497039795 -2.086249589920044 -0.20858199894428253
v 6.65696382522583 -2.086249589920044 -0.20858199894428253
v 6.46498966217041 0.0077575198374688625 -0.20858199894428253
v 10.507740020751953 0.0077575198374688625 -0.20858199894428253
v 6.65696382522583 2.0989575386047363 -0.20858199894428253
v 10.552910804748535 2.0989575386047363 -0.20858199894428253
v 6.702134132385254 2.879297971725464 -0.20858199894428253
v 10.48515510559082 2.879297971725464 -0.20858199894428253
v 3.224013328552246 2.879297971725464 -0.20858199894428253
v 2.7497241497039795 2.0989575386047363 -0.20858199894428253
v 2.422238826751709 0.0077575198374688625 -0.20858199894428253
v 1.744682788848877 -2.086249589920044 -0.20858199894428253
v 2.185094118118286 -2.8665900230407715 -0.20858199894428253
v 2.185094118118286 2.879297971725464 -0.20858199894428253
v 1.744682788848877 2.0989575386047363 -0.20858199894428253
v 1.372027039527893 0.0077575198374688625 -0.20858199894428253
v 11.557951927185059 2.879297971725464 -0.20858199894428253
v 11.557951927185059 2.0989575386047363 -0.20858199894428253
v 11.557951927185059 0.0077575198374688625 -0.20858199894428253
v 10.552910804748535 -2.086249589920044 -0.20858199894428253
v 10.48515510559082 -2.8665900230407715 -0.20858199894428253
v 11.557951927185059 -2.8665900230407715 -0.20858199894428253
v 11.557951927185059 -2.086249589920044 -0.20858199894428253
v -1.372074842453003 0.0077575198374688625 -0.20858199894428253
v -1.7447305917739868 2.0989575386047363 -0.20858199894428253
v -2.4222865104675293 0.0077575198374688625 -0.20858199894428253
v -2.749772071838379 2.0989575386047363 -0.20858199894428253
v -6.4650373458862305 0.0077575198374688625 -0.20858199894428253
v -6.65701150894165 2.0989575386047363 -0.20858199894428253
v -10.50778865814209 0.0077575198374688625 -0.20858199894428253
v -10.552958488464355 2.0989575386047363 -0.20858199894428253
v -11.557999610900879 0.0077575198374688625 -0.20858199894428253
v -11.557999610900879 2.0989575386047363 -0.20858199894428253
v -10.552958488464355 -2.086249589920044 -0.20858199894428253
v -6.65701150894165 -2.086249589920044 -0.20858199894428253
v -2.749772071838379 -2.086249589920044 -0.20858199894428253
v -1.7447305917739868 -2.086249589920044 -0.20858199894428253
v -6.702181816101074 -2.8665900230407715 -0.20858199894428253
v -10.48520278930664 -2.8665900230407715 -0.20858199894428253
v -11.557999610900879 -2.8665900230407715 -0.20858199894428253
v -3.2240612506866455 -2.8665900230407715 -0.20858199894428253
v -2.1851420402526855 -2.8665900230407715 -0.20858199894428253
v -11.557999610900879 -2.086249589920044 -0.20858199894428253
v -2.1851420402526855 2.879297971725464 -0.20858199894428253
v -3.2240612506866455 2.879297971725464 -0.20858199894428253
v -6.702181816101074 2.879297971725464 -0.20858199894428253
v -10.48520278930664 2.879297971725464 -0.20858199894428253
v -11.557999610900879 2.879297971725464 -0.20858199894428253
vn 0 0 1
vn 0 0 1
vn 0 0 1
vn 0 0 1
vn 0 0 1
vn 0 0 1
vn 0 0 1
vn 0 0 1
vn 0 0 1
vn 0 0 1
vn 0 0 1
vn 0 0 1
vn 0 0 1
vn 0 0 1
vn 0 0 1
vn 0 0 1
vn 0 0 1
vn 0 0 1
vn 0 0 1
vn 0 0 1
vn 0 0 1
vn 0 0 1
vn 0 0 1
vn 0 0 1
vn 0 0 1
vn 0 0 1
vn 0 0 1
vn 0 0 1
vn 0 0 1
vn 0 0 1
vn 0 0 1
vn 0 0 1
vn 0 0 1
vn 0 0 1
vn 0 0 1
vn 0 0 1
vn 0 0 1
vn 0 0 1
vn 0 0 1
vn 0 0 1
vn 0 0 1
vn 0 0 1
vn 0 0 1
vn 0 0 1
vn 0 0 1
vn 0 0 1
vn 0 0 1
vn 0 0 1
vn 0 0 1
vn 0 0 1
vt 0.9717198014259338 0.7694125175476074
vt 0.9696266055107117 0.8540493249893188
vt 0.9530432224273682 0.7575415372848511
vt 0.9507154226303101 0.8523167967796326
vt 0.8999367952346802 0.8465417623519897
vt 0.89750075340271 0.9449103474617004
vt 0.8489416241645813 0.8498142957687378
vt 0.8465957641601562 0.9445895552635193
vt 0.8299402594566345 0.8506484627723694
vt 0.8276846408843994 0.9426003098487854
vt 0.8320334553718567 0.7659474611282349
vt 0.8512694239616394 0.7550390362739563
vt 0.9023548364639282 0.7481731176376343
vt 0.953656792640686 0.7330296039581299
vt 0.9723513722419739 0.744130551815033
vt 0.8326650261878967 0.7406655550003052
vt 0.8518829941749573 0.7305271029472351
vt 0.9029864072799683 0.7226986289024353
vt 0.8270350098609924 0.96858811378479
vt 0.8459822535514832 0.9691014885902405
vt 0.8968691229820251 0.9703206419944763
vt 0.948369562625885 0.9470920562744141
vt 0.9673529267311096 0.946065366268158
vt 0.9667213559150696 0.9720531702041626
vt 0.9477560520172119 0.9716039896011353
vt 0.9018495678901672 0.6949783563613892
vt 0.8510709404945374 0.6852890849113464
vt 0.9021743535995483 0.6695680618286133
vt 0.8513777256011963 0.6607770919799805
vt 0.9034194946289062 0.5711994171142578
vt 0.8525867462158203 0.5660018920898438
vt 0.9046645760536194 0.472766637802124
vt 0.8537777066230774 0.47122660279273987
vt 0.9049894213676453 0.44735634326934814
vt 0.8540844321250916 0.4467146694660187
vt 0.9555695056915283 0.4725099503993988
vt 0.9543785452842712 0.5672852396965027
vt 0.9531695246696472 0.6620604395866394
vt 0.9528627991676331 0.6865724325180054
vt 0.9733438491821289 0.5662585496902466
vt 0.9745168089866638 0.4742424786090851
vt 0.9748415946960449 0.44825467467308044
vt 0.9722791910171509 0.650895357131958
vt 0.9719544053077698 0.6761772632598877
vt 0.9558762907981873 0.4479980170726776
vt 0.8322319388389587 0.6744447946548462
vt 0.8325567841529846 0.6490986347198486
vt 0.8336394429206848 0.5644618272781372
vt 0.8347943425178528 0.4724457859992981
vt 0.8351371884346008 0.44645801186561584
s on
f 1/1/1 2/2/2 3/3/3
f 2/2/2 4/4/4 3/3/3
f 3/3/3 4/4/4 5/5/5
f 4/4/4 6/6/6 5/5/5
f 5/5/5 6/6/6 7/7/7
f 6/6/6 8/8/8 7/7/7
f 7/7/7 8/8/8 9/9/9
f 8/8/8 10/10/10 9/9/9
f 9/9/9 10/10/10 10/10/10
f 10/10/10 9/9/9 10/10/10
f 10/10/10 9/9/9 9/9/9
f 9/9/9 11/11/11 9/9/9
f 9/9/9 11/11/11 7/7/7
f 11/11/11 12/12/12 7/7/7
f 7/7/7 12/12/12 5/5/5
f 12/12/12 13/13/13 5/5/5
f 5/5/5 13/13/13 3/3/3
f 13/13/13 14/14/14 3/3/3
f 3/3/3 14/14/14 15/15/15
f 14/14/14 15/15/15 15/15/15
f 15/15/15 15/15/15 11/11/11
f 15/15/15 11/11/11 11/11/11
f 11/11/11 11/11/11 11/11/11
f 11/11/11 16/16/16 11/11/11
f 11/11/11 16/16/16 12/12/12
f 16/16/16 17/17/17 12/12/12
f 12/12/12 17/17/17 13/13/13
f 17/17/17 18/18/18 13/13/13
f 13/13/13 18/18/18 14/14/14
f 18/18/18 14/14/14 14/14/14
f 14/14/14 14/14/14 10/10/10
f 14/14/14 10/10/10 10/10/10
f 10/10/10 10/10/10 10/10/10
f 10/10/10 8/8/8 10/10/10
f 10/10/10 8/8/8 19/19/19
f 8/8/8 20/20/20 19/19/19
f 19/19/19 20/20/20 20/20/20
f 20/20/20 8/8/8 20/20/20
f 20/20/20 8/8/8 21/21/21
f 8/8/8 6/6/6 21/21/21
f 21/21/21 6/6/6 22/22/22
f 6/6/6 4/4/4 22/22/22
f 22/22/22 4/4/4 2/2/2
f 4/4/4 2/2/2 2/2/2
f 2/2/2 2/2/2 2/2/2
f 2/2/2 23/23/23 2/2/2
f 2/2/2 23/23/23 22/22/22
f 23/23/23 24/24/24 22/22/22
f 22/22/22 24/24/24 25/25/25
f 24/24/24 25/25/25 25/25/25
f 25/25/25 25/25/25 26/26/26
f 25/25/25 26/26/26 26/26/26
f 26/26/26 26/26/26 26/26/26
f 26/26/26 27/27/27 26/26/26
f 26/26/26 27/27/27 28/28/28
f 27/27/27 29/29/29 28/28/28
f 28/28/28 29/29/29 30/30/30
f 29/29/29 31/31/31 30/30/30
f 30/30/30 31/31/31 32/32/32
f 31/31/31 33/33/33 32/32/32
f 32/32/32 33/33/33 34/34/34
f 33/33/33 35/35/35 34/34/34
f 34/34/34 35/35/35 35/35/35
f 35/35/35 34/34/34 35/35/35
f 35/35/35 34/34/34 34/34/34
f 34/34/34 36/36/36 34/34/34
f 34/34/34 36/36/36 32/32/32
f 36/36/36 37/37/37 32/32/32
f 32/32/32 37/37/37 30/30/30
f 37/37/37 38/38/38 30/30/30
f 30/30/30 38/38/38 28/28/28
f 38/38/38 39/39/39 28/28/28
f 28/28/28 39/39/39 26/26/26
f 39/39/39 26/26/26 26/26/26
f 26/26/26 26/26/26 38/38/38
f 26/26/26 38/38/38 38/38/38
f 38/38/38 38/38/38 38/38/38
f 38/38/38 37/37/37 38/38/38
f 38/38/38 37/37/37 40/40/40
f 37/37/37 36/36/36 40/40/40
f 40/40/40 36/36/36 41/41/41
f 36/36/36 42/42/42 41/41/41
f 41/41/41 42/42/42 42/42/42
f 42/42/42 40/40/40 42/42/42
f 42/42/42 40/40/40 40/40/40
f 40/40/40 43/43/43 40/40/40
f 40/40/40 43/43/43 38/38/38
f 43/43/43 44/44/44 38/38/38
f 38/38/38 44/44/44 39/39/39
f 44/44/44 39/39/39 39/39/39
f 39/39/39 39/39/39 42/42/42
f 39/39/39 42/42/42 42/42/42
f 42/42/42 42/42/42 42/42/42
f 42/42/42 36/36/36 42/42/42
f 42/42/42 36/36/36 45/45/45
f 36/36/36 34/34/34 45/45/45
f 45/45/45 34/34/34 34/34/34
f 34/34/34 27/27/27 34/34/34
f 34/34/34 27/27/27 27/27/27
f 27/27/27 46/46/46 27/27/27
f 27/27/27 46/46/46 29/29/29
f 46/46/46 47/47/47 29/29/29
f 29/29/29 47/47/47 31/31/31
f 47/47/47 48/48/48 31/31/31
f 31/31/31 48/48/48 33/33/33
f 48/48/48 49/49/49 33/33/33
f 33/33/33 49/49/49 50/50/50
f 22/22/22 25/25/25 21/21/21
f 15/15/15 1/1/1 3/3/3
f 50/50/50 35/35/35 33/33/33
